<?xml version="1.0" encoding="UTF-8" standalone="no"?>
<svg
   xmlns:dc="http://purl.org/dc/elements/1.1/"
   xmlns:cc="http://creativecommons.org/ns#"
   xmlns:rdf="http://www.w3.org/1999/02/22-rdf-syntax-ns#"
   xmlns:svg="http://www.w3.org/2000/svg"
   xmlns="http://www.w3.org/2000/svg"
   xmlns:sodipodi="http://sodipodi.sourceforge.net/DTD/sodipodi-0.dtd"
   xmlns:inkscape="http://www.inkscape.org/namespaces/inkscape"
   version="1.1"
   id="svg2"
   x="0px"
   y="0px"
   width="1147.592px"
   height="1397.27px"
   viewBox="0 0 1147.592 1397.27"
   enable-background="new 0 0 1147.592 1397.27"
   xml:space="preserve"
   sodipodi:docname="smallsimple.svg"
   inkscape:version="0.92.1 r"><metadata
     id="metadata5821"><rdf:RDF><cc:Work
         rdf:about=""><dc:format>image/svg+xml</dc:format><dc:type
           rdf:resource="http://purl.org/dc/dcmitype/StillImage" /><dc:title></dc:title></cc:Work></rdf:RDF></metadata><defs
     id="defs5819" /><sodipodi:namedview
     pagecolor="#ffffff"
     bordercolor="#666666"
     borderopacity="1"
     objecttolerance="10"
     gridtolerance="10"
     guidetolerance="10"
     inkscape:pageopacity="0"
     inkscape:pageshadow="2"
     inkscape:window-width="1364"
     inkscape:window-height="747"
     id="namedview5817"
     showgrid="false"
     inkscape:zoom="0.39505607"
     inkscape:cx="323.83618"
     inkscape:cy="698.63501"
     inkscape:window-x="0"
     inkscape:window-y="19"
     inkscape:window-maximized="0"
     inkscape:current-layer="svg2" /><rect
     x="21.066"
     y="439.913"
     width="30.913"
     height="18.155"
     fill="none"
     stroke="#010101"
     id="rect5554" /><rect
     x="106.758"
     y="452.881"
     width="29.563"
     height="5.188"
     fill="none"
     stroke="#010101"
     id="rect5556" /><rect
     x="184.038"
     y="464.809"
     width="25.963"
     height="17.637"
     fill="none"
     stroke="#010101"
     id="rect5558" /><rect
     x="305.408"
     y="427.01"
     width="17.01"
     height="40.393"
     fill="none"
     stroke="#010101"
     id="rect5560" /><rect
     x="262.876"
     y="458.068"
     width="17.004"
     height="17.633"
     fill="none"
     stroke="#010101"
     id="rect5562" /><rect
     x="338.931"
     y="427.01"
     width="47.904"
     height="25.868"
     fill="none"
     stroke="#010101"
     id="rect5564" /><polygon
     fill="none"
     stroke="#010101"
     points="66.82,475.701 47.112,507.86 101.95,510.972 140.64,493.336 90.161,496.448 87.322,473.625 "
     id="polygon5566" /><polygon
     fill="none"
     stroke="#010101"
     points="196.401,495.929 224.016,523.938 348.972,517.196 271.061,492.297 227.967,473.625 "
     id="polygon5568" /><rect
     x="402.066"
     y="437.707"
     width="30.912"
     height="18.155"
     fill="none"
     stroke="#010101"
     id="rect5614" /><rect
     x="487.758"
     y="450.675"
     width="29.564"
     height="5.188"
     fill="none"
     stroke="#010101"
     id="rect5616" /><polygon
     fill="none"
     stroke="#010101"
     points="447.82,473.495 428.112,505.654 482.95,508.766 521.641,491.13 471.161,494.242 468.322,471.419 "
     id="polygon5626" /><polygon
     fill="none"
     stroke="#010101"
     stroke-miterlimit="10"
     points="105.375,574.337 109.727,577.817   87.819,581.537 87.819,563.254 "
     id="polygon5690" /><polygon
     fill="none"
     stroke="#010101"
     stroke-miterlimit="10"
     points="118.398,535.503 118.398,546.203   131.049,546.508 131.624,536.67 "
     id="polygon5692" /><polygon
     fill="none"
     stroke="#010101"
     stroke-miterlimit="10"
     points="145.239,571.488 136.693,573.065   131.049,566.452 133.958,558.263 142.5,556.682 148.14,563.295 "
     id="polygon5694" /><polygon
     fill="none"
     stroke="#010101"
     stroke-miterlimit="10"
     points="38.623,588.972 40.072,595.651   21.066,596.168 21.066,577.883 "
     id="polygon5696" /><polygon
     fill="none"
     stroke="#010101"
     stroke-miterlimit="10"
     points="41.294,558.627 41.294,569.324   54.52,569.069 54.52,559.794 "
     id="polygon5698" /><polygon
     fill="none"
     stroke="#010101"
     stroke-miterlimit="10"
     points="68.135,594.612 59.589,596.189   53.949,589.576 56.854,581.387 65.4,579.81 71.037,586.422 "
     id="polygon5700" /><polygon
     fill="none"
     stroke="#010101"
     stroke-miterlimit="10"
     points="198.394,558.627 168.314,587.999   181.798,611.858 204.229,618.775 210.326,608.747 236,610.562 240.148,569.324 "
     id="polygon5702" /><polygon
     fill="none"
     stroke="#010101"
     stroke-miterlimit="10"
     points="87.919,607.036 85.585,634.159   102.962,636.235 116.188,630.519 113.592,613.673 "
     id="polygon5704" /><polygon
     fill="none"
     stroke="#010101"
     stroke-miterlimit="10"
     points="21.066,632.215 57.578,662.556   102.312,662.556 102.312,685.507 21.066,685.507 "
     id="polygon5706" /><polygon
     fill="none"
     stroke="#010101"
     stroke-miterlimit="10"
     points="180.646,659.903 197.051,631.488   213.458,659.903 "
     id="polygon5708" /><polygon
     fill="none"
     stroke="#010101"
     stroke-miterlimit="10"
     points="162.637,558.94 155.559,550.062   158.087,538.998 168.314,534.071 178.537,538.998 181.066,550.062 173.985,558.94 "
     id="polygon5710" /><polygon
     fill="none"
     stroke="#010101"
     stroke-miterlimit="10"
     points="68.73,730.111 73.08,733.591   51.17,737.305 51.17,719.021 "
     id="polygon5712" /><polygon
     fill="none"
     stroke="#010101"
     stroke-miterlimit="10"
     points="71.399,699.77 71.399,710.464   84.053,710.773 84.625,700.938 "
     id="polygon5714" /><polygon
     fill="none"
     stroke="#010101"
     stroke-miterlimit="10"
     points="115.638,723.206 108.563,714.329   111.088,703.264 121.315,698.338 131.542,703.264 134.067,714.329 126.989,723.206 "
     id="polygon5716" /><polygon
     fill="none"
     stroke="#010101"
     stroke-miterlimit="10"
     points="275.604,675.153 279.956,678.633   258.047,682.354 258.047,664.069 "
     id="polygon5718" /><polygon
     fill="none"
     stroke="#010101"
     stroke-miterlimit="10"
     points="278.275,644.812 278.275,655.512   290.927,655.815 291.501,645.979 "
     id="polygon5720" /><polygon
     fill="none"
     stroke="#010101"
     stroke-miterlimit="10"
     points="305.116,680.797 296.571,682.374   290.927,675.761 293.835,667.57 302.378,665.99 308.018,672.604 "
     id="polygon5722" /><polygon
     fill="none"
     stroke="#010101"
     stroke-miterlimit="10"
     points="201.171,667.936 201.171,678.633   214.398,678.377 214.398,669.104 "
     id="polygon5724" /><polygon
     fill="none"
     stroke="#010101"
     stroke-miterlimit="10"
     points="322.514,668.248 315.438,659.371   317.965,648.306 328.192,643.38 338.415,648.306 340.944,659.371 333.863,668.248 "
     id="polygon5726" /><polygon
     fill="none"
     stroke="#010101"
     stroke-miterlimit="10"
     points="258.047,541.004 248.963,587.023   315.438,593.704 331.431,564.875 "
     id="polygon5728" /><polygon
     fill="none"
     stroke="#010101"
     stroke-miterlimit="10"
     points="98.24,735.748 89.694,737.329   84.053,730.716 86.958,722.521 95.504,720.948 101.145,727.562 "
     id="polygon5730" /><polygon
     fill="none"
     stroke="#010101"
     stroke-miterlimit="10"
     points="504.59,600.795 508.941,604.275   487.033,607.995 487.033,589.712 "
     id="polygon5732" /><polygon
     fill="none"
     stroke="#010101"
     stroke-miterlimit="10"
     points="517.611,561.961 517.611,572.661   530.264,572.966 530.838,563.128 "
     id="polygon5734" /><polygon
     fill="none"
     stroke="#010101"
     stroke-miterlimit="10"
     points="545.365,716.138 536.818,717.715   531.176,711.102 534.084,702.912 542.627,701.331 548.266,707.944 "
     id="polygon5736" /><polygon
     fill="none"
     stroke="#010101"
     stroke-miterlimit="10"
     points="437.837,615.43 439.287,622.109   420.28,622.626 420.28,604.341 "
     id="polygon5738" /><polygon
     fill="none"
     stroke="#010101"
     stroke-miterlimit="10"
     points="440.508,585.085 440.508,595.782   453.734,595.527 453.734,586.252 "
     id="polygon5740" /><polygon
     fill="none"
     stroke="#010101"
     stroke-miterlimit="10"
     points="467.35,621.07 458.804,622.646   453.163,616.034 456.068,607.845 464.614,606.268 470.251,612.88 "
     id="polygon5742" /><polygon
     fill="none"
     stroke="#010101"
     stroke-miterlimit="10"
     points="487.134,633.494 484.8,660.617   502.177,662.693 515.402,656.977 512.807,640.131 "
     id="polygon5746" /><polygon
     fill="none"
     stroke="#010101"
     stroke-miterlimit="10"
     points="420.28,658.673 456.792,689.014   501.526,689.014 501.526,711.965 420.28,711.965 "
     id="polygon5748" /><polygon
     fill="none"
     stroke="#010101"
     stroke-miterlimit="10"
     points="467.944,756.569 472.294,760.049   450.385,763.763 450.385,745.479 "
     id="polygon5754" /><polygon
     fill="none"
     stroke="#010101"
     stroke-miterlimit="10"
     points="470.613,726.229 470.613,736.922   483.268,737.231 483.839,727.395 "
     id="polygon5756" /><polygon
     fill="none"
     stroke="#010101"
     stroke-miterlimit="10"
     points="514.852,749.664 507.777,740.787   510.303,729.722 520.529,724.796 530.756,729.722 533.281,740.787 526.203,749.664 "
     id="polygon5758" /><polygon
     fill="none"
     stroke="#010101"
     stroke-miterlimit="10"
     points="497.454,762.206 488.908,763.787   483.268,757.174 486.173,748.98 494.719,747.406 500.359,754.02 "
     id="polygon5774" /><rect
     width="511.822"
     height="339.235"
     fill="none"
     stroke="#010101"
     id="rect5794" /></svg>